#!OML:ASF F:\VICON\USERDATA\INSTALL\rory3\rory3.ASF
:FULLY-SPECIFIED
:DEGREES
63
root 0.38132682219818675 17.777993219190623 26.88361698749228 -2.14915678449789 3.2540227165860185 3.112382660879231
lfemur 19.79557078492494 -3.4403649984220257 -27.186606420770456
ltibia 15.38555905662621
lfoot -16.385009927529644 -3.8790053831731104
ltoes -12.434603163618876
rfemur -34.735035021433696 6.525425046983726 16.95766375604027
rtibia 3.0260519676852837
rfoot -9.532788692008245 -17.987595143368466
rtoes -3.551379793811006
lowerback 9.0018630236966 -2.196905433313842 -5.394840929775309
upperback 0.5449305249076468 -3.4265774710122034 1.7852912078311525
thorax -4.271336878738341 -1.545497355316805 5.393724701505527
lowerneck -16.036407089583456 -2.498046943247156 -2.673207942350322
upperneck 21.009551145638316 -2.958981924680711 0.6495310099527327
head 9.308491535163894 -1.5086426662142673 0.2688713385274631
lclavicle -1.3493813302441688e-15 -1.110864320467782e-15
lhumerus -17.39937557973884 -5.662501817511155 78.41893228838869
lradius 22.068503157035174
lwrist 6.727591815177581
lhand -30.889161409105576 25.333703702747574
lfingers 7.125020000000056
lthumb -4.176006598061292 55.269186963492444
rclavicle -1.3493813302441682e-15 -1.110864320467782e-15
rhumerus -36.35834661709157 -32.293472791258935 -69.56659056408978
rradius 8.8602340266267
rwrist 13.800825810552222
rhand -17.47759482758638 29.240312847795582
rfingers 7.125020000000056
rthumb 8.774240886499992 -6.823521625320647
64
root 0.35441601354349184 17.70487607076168 27.776879039954988 -2.188910484015459 2.912584815087024 2.0878598958471923
lfemur 20.499890015172454 -3.6743497555586506 -25.21261232946099
ltibia 19.03911987945743
lfoot -12.104298186773072 -6.0810575123343416
ltoes -16.119960970277873
rfemur -34.17309204502631 6.925063570645847 18.456250800370146
rtibia 4.201169319495726
rfoot -10.220556680086899 -16.27342801356972
rtoes -1.9045656424160926
lowerback 9.012927420355545 -2.2866034461593148 -4.788066561289685
upperback 0.5197919301669256 -3.4637829834964053 2.1844595883244127
thorax -4.314982640580013 -1.5647833163683558 5.456801482917347
lowerneck -16.12532487503775 -2.3203156095681954 -2.5941023615971655
upperneck 21.083793277332763 -2.698616988230575 0.44271185119567247
head 9.335976692419322 -1.393806978836008 0.21014194984233753
lclavicle -1.397694710936889e-15 -1.1483181133189422e-15
lhumerus -16.636416424046864 -4.471185379321389 78.34703323451015
lradius 21.262818595301646
lwrist 6.247646899719442
lhand -31.16679349937791 24.796028573471585
lfingers 7.125020000000056
lthumb -4.444110140811539 54.73327328207182
rclavicle -1.397694710936889e-15 -1.1483181133189426e-15
rhumerus -37.46821604819721 -33.99615125211767 -68.17007331347563
rradius 7.0629622079050165
rwrist 15.441523743048826
rhand -17.444341752295067 29.4808074990755
rfingers 7.125020000000056
rthumb 8.806418974230581 -7.28755646605557
65
root 0.30887274569286927 17.691963878047048 28.02191316381154 -2.4148955040070077 2.4340949447543245 0.9603702498573536
lfemur 19.929957306243452 -3.680377023154702 -23.25752913558478
ltibia 26.34667989376641
lfoot -6.005626380544001 -8.933695005071412
ltoes -18.171164763317144
rfemur -33.57701027966073 6.885185413825866 20.34255951935119
rtibia 6.417367344447008
rfoot -11.038688456874768 -14.168191216145914
rtoes 0.5488976895782711
lowerback 9.17564187135742 -2.384968428965076 -4.012640719328791
upperback 0.48561655053575764 -3.4836785997239232 2.6069260529719527
thorax -4.476512621186304 -1.5804830479144565 5.423249898294283
lowerneck -16.16601725683623 -2.140451514973377 -2.5045096245486262
upperneck 21.196642806517385 -2.431385911549478 0.20704079104312534
head 9.366252941376317 -1.281231699519612 0.14338681893296618
lclavicle -1.4878987714966618e-15 -1.2180981512593858e-15
lhumerus -16.625339604429062 -3.5624553595434243 78.67666230453395
lradius 21.359920926079056
lwrist 6.059779333058048
lhand -31.166527354588048 24.2777946818339
lfingers 7.125020000000055
lthumb -4.443833833363215 54.216377793211336
rclavicle -1.4878987714966622e-15 -1.2180981512593858e-15
rhumerus -38.84912258702002 -35.27178261612556 -67.24993897812215
rradius 6.491033436087392
rwrist 16.59307928773379
rhand -17.469504919567658 29.59920415850467
rfingers 7.125020000000055
rthumb 8.782262484776993 -7.549265674788478
66
root 0.28747996600396125 17.788907836390933 29.172446014507734 -3.0840937425628874 1.5179134686896325 -0.4512353509917959
lfemur 18.086915025897106 -3.6857063223509563 -20.89787478486091
ltibia 35.4201229942234
lfoot 3.180252968989277 -12.52232629570699
ltoes -17.81665019452194
rfemur -31.088799238540346 6.9102735847198975 22.90617763154539
rtibia 7.443121249586461
rfoot -10.717008291328932 -11.195594613513435
rtoes 3.1566986180993455
lowerback 9.002936064525251 -2.3844253215071975 -2.75577176981891
upperback 0.40418209983942327 -3.3069941806614125 3.077858181261335
thorax -4.5071926183815805 -1.5129355162469311 5.154259591181473
lowerneck -15.964385001584123 -1.9193610963712728 -2.3885658172806887
upperneck 21.9936269990515 -2.0921948848598255 -0.24657901887074596
head 9.570926611979477 -1.1533214800740446 0.006882900880495424
lclavicle -1.4821547386569173e-15 -1.2135957811761658e-15
lhumerus -17.29132877930004 -1.7198592168574134 78.49336964851497
lradius 18.457352380621174
lwrist 4.706111277321304
lhand -30.89152753211524 24.57498664511413
lfingers 7.125020000000055
lthumb -4.1782120585997164 54.51439101631223
rclavicle -1.4821547386569175e-15 -1.213595781176166e-15
rhumerus -39.39513730876639 -37.27016496439094 -65.80273173304906
rradius 4.49790960855244
rwrist 17.947261834882024
rhand -17.364652184793584 29.381450944318406
rfingers 7.125020000000055
rthumb 8.883606609376873 -8.116932787235363
